<?xml version="1.0" encoding="UTF-8" standalone="no"?>
<!DOCTYPE svg PUBLIC "-//W3C//DTD SVG 1.1//EN"
 "http://www.w3.org/Graphics/SVG/1.1/DTD/svg11.dtd">
<!-- Generated by graphviz version 14.1.4 (20260321.0153)
 -->
<!-- Title: dependency&#45;cruiser output Pages: 1 -->
<svg width="906pt" height="263pt"
 viewBox="0.00 0.00 906.00 263.00" xmlns="http://www.w3.org/2000/svg" xmlns:xlink="http://www.w3.org/1999/xlink">
<g id="graph0" class="graph" transform="scale(1 1) rotate(0) translate(4 259)">
<title>dependency&#45;cruiser output</title>
<polygon fill="white" stroke="none" points="-4,4 -4,-259 902,-259 902,4 -4,4"/>
<g id="clust1" class="cluster">
<title>cluster_packages</title>
<path fill="#ffffff" stroke="black" stroke-width="2" d="M20,-8C20,-8 878,-8 878,-8 884,-8 890,-14 890,-20 890,-20 890,-235 890,-235 890,-241 884,-247 878,-247 878,-247 20,-247 20,-247 14,-247 8,-241 8,-235 8,-235 8,-20 8,-20 8,-14 14,-8 20,-8"/>
<text xml:space="preserve" text-anchor="middle" x="449" y="-234.45" font-family="Helvetica,sans-Serif" font-weight="bold" font-size="9.00">packages</text>
</g>
<g id="clust2" class="cluster">
<title>cluster_packages/libs</title>
<path fill="#ffffff" stroke="black" stroke-width="2" d="M28,-16C28,-16 870,-16 870,-16 876,-16 882,-22 882,-28 882,-28 882,-209.25 882,-209.25 882,-215.25 876,-221.25 870,-221.25 870,-221.25 28,-221.25 28,-221.25 22,-221.25 16,-215.25 16,-209.25 16,-209.25 16,-28 16,-28 16,-22 22,-16 28,-16"/>
<text xml:space="preserve" text-anchor="middle" x="449" y="-208.7" font-family="Helvetica,sans-Serif" font-weight="bold" font-size="9.00">libs</text>
</g>
<!-- packages/libs/core.base.errors -->
<g id="node1" class="node">
<title>packages/libs/core.base.errors</title>
<g id="a_node1"><a xlink:href="packages/libs/core.base.errors" xlink:title="core.base.errors">
<polygon fill="#e8f5e9" stroke="black" points="477.38,-41.75 396.6,-41.75 394.62,-39.78 394.62,-24 475.4,-24 477.38,-25.97 477.38,-41.75"/>
<polyline fill="none" stroke="black" points="475.4,-39.78 394.62,-39.78"/>
<polyline fill="none" stroke="black" points="475.4,-39.78 475.4,-24"/>
<polyline fill="none" stroke="black" points="475.4,-39.78 477.38,-41.75"/>
<text xml:space="preserve" text-anchor="start" x="402.62" y="-30.25" font-family="Helvetica,sans-Serif" font-size="9.00">core.base.errors</text>
</a>
</g>
</g>
<!-- packages/libs/core.base.model -->
<g id="node2" class="node">
<title>packages/libs/core.base.model</title>
<g id="a_node2"><a xlink:href="packages/libs/core.base.model" xlink:title="core.base.model">
<polygon fill="#e8f5e9" stroke="black" points="686.12,-41.75 603.85,-41.75 601.88,-39.78 601.88,-24 684.15,-24 686.12,-25.97 686.12,-41.75"/>
<polyline fill="none" stroke="black" points="684.15,-39.78 601.88,-39.78"/>
<polyline fill="none" stroke="black" points="684.15,-39.78 684.15,-24"/>
<polyline fill="none" stroke="black" points="684.15,-39.78 686.12,-41.75"/>
<text xml:space="preserve" text-anchor="start" x="609.88" y="-30.25" font-family="Helvetica,sans-Serif" font-size="9.00">core.base.model</text>
</a>
</g>
</g>
<!-- packages/libs/core.base.tracing -->
<g id="node3" class="node">
<title>packages/libs/core.base.tracing</title>
<g id="a_node3"><a xlink:href="packages/libs/core.base.tracing" xlink:title="core.base.tracing">
<polygon fill="#e8f5e9" stroke="black" points="238.25,-41.75 153.72,-41.75 151.75,-39.78 151.75,-24 236.28,-24 238.25,-25.97 238.25,-41.75"/>
<polyline fill="none" stroke="black" points="236.28,-39.78 151.75,-39.78"/>
<polyline fill="none" stroke="black" points="236.28,-39.78 236.28,-24"/>
<polyline fill="none" stroke="black" points="236.28,-39.78 238.25,-41.75"/>
<text xml:space="preserve" text-anchor="start" x="159.75" y="-30.25" font-family="Helvetica,sans-Serif" font-size="9.00">core.base.tracing</text>
</a>
</g>
</g>
<!-- packages/libs/core.base.types -->
<g id="node4" class="node">
<title>packages/libs/core.base.types</title>
<g id="a_node4"><a xlink:href="packages/libs/core.base.types" xlink:title="core.base.types">
<polygon fill="#e8f5e9" stroke="black" points="288.25,-72.5 209.72,-72.5 207.75,-70.53 207.75,-54.75 286.28,-54.75 288.25,-56.72 288.25,-72.5"/>
<polyline fill="none" stroke="black" points="286.28,-70.53 207.75,-70.53"/>
<polyline fill="none" stroke="black" points="286.28,-70.53 286.28,-54.75"/>
<polyline fill="none" stroke="black" points="286.28,-70.53 288.25,-72.5"/>
<text xml:space="preserve" text-anchor="start" x="215.75" y="-61" font-family="Helvetica,sans-Serif" font-size="9.00">core.base.types</text>
</a>
</g>
</g>
<!-- packages/libs/core.port.event&#45;bus -->
<g id="node5" class="node">
<title>packages/libs/core.port.event&#45;bus</title>
<g id="a_node5"><a xlink:href="packages/libs/core.port.event-bus" xlink:title="core.port.event&#45;bus">
<polygon fill="#e3f2fd" stroke="black" points="868.38,-72.5 775.6,-72.5 773.62,-70.53 773.62,-54.75 866.4,-54.75 868.38,-56.72 868.38,-72.5"/>
<polyline fill="none" stroke="black" points="866.4,-70.53 773.62,-70.53"/>
<polyline fill="none" stroke="black" points="866.4,-70.53 866.4,-54.75"/>
<polyline fill="none" stroke="black" points="866.4,-70.53 868.38,-72.5"/>
<text xml:space="preserve" text-anchor="start" x="781.62" y="-61" font-family="Helvetica,sans-Serif" font-size="9.00">core.port.event&#45;bus</text>
</a>
</g>
</g>
<!-- packages/libs/core.port.event&#45;bus&#45;&gt;packages/libs/core.base.model -->
<g id="edge1" class="edge">
<title>packages/libs/core.port.event&#45;bus&#45;&gt;packages/libs/core.base.model</title>
<path fill="none" stroke="#000000" stroke-width="2" stroke-opacity="0.200000" d="M773.57,-54.92C749.4,-50.99 719.98,-46.22 695.29,-42.21"/>
<polygon fill="#000000" fill-opacity="0.200000" stroke="#000000" stroke-width="2" stroke-opacity="0.200000" points="695.67,-40.14 689.41,-41.25 695,-44.29 695.67,-40.14"/>
</g>
<!-- packages/libs/core.port.storage -->
<g id="node6" class="node">
<title>packages/libs/core.port.storage</title>
<g id="a_node6"><a xlink:href="packages/libs/core.port.storage" xlink:title="core.port.storage">
<polygon fill="#e3f2fd" stroke="black" points="508.5,-72.5 425.47,-72.5 423.5,-70.53 423.5,-54.75 506.53,-54.75 508.5,-56.72 508.5,-72.5"/>
<polyline fill="none" stroke="black" points="506.53,-70.53 423.5,-70.53"/>
<polyline fill="none" stroke="black" points="506.53,-70.53 506.53,-54.75"/>
<polyline fill="none" stroke="black" points="506.53,-70.53 508.5,-72.5"/>
<text xml:space="preserve" text-anchor="start" x="431.5" y="-61" font-family="Helvetica,sans-Serif" font-size="9.00">core.port.storage</text>
</a>
</g>
</g>
<!-- packages/libs/core.port.storage&#45;&gt;packages/libs/core.base.errors -->
<g id="edge3" class="edge">
<title>packages/libs/core.port.storage&#45;&gt;packages/libs/core.base.errors</title>
<path fill="none" stroke="#000000" stroke-opacity="0.200000" d="M457.48,-54.46C455.1,-52.18 452.44,-49.63 449.83,-47.13"/>
<polygon fill="none" stroke="#000000" stroke-opacity="0.200000" points="451.52,-45.84 445.73,-43.2 448.61,-48.87 451.52,-45.84"/>
</g>
<!-- packages/libs/core.port.storage&#45;&gt;packages/libs/core.base.model -->
<g id="edge4" class="edge">
<title>packages/libs/core.port.storage&#45;&gt;packages/libs/core.base.model</title>
<path fill="none" stroke="#000000" stroke-opacity="0.200000" d="M508.64,-55.74C534.3,-51.59 567.1,-46.3 593.99,-41.95"/>
<polygon fill="none" stroke="#000000" stroke-opacity="0.200000" points="594.32,-44.03 599.91,-41 593.65,-39.88 594.32,-44.03"/>
</g>
<!-- packages/libs/core.port.storage&#45;&gt;packages/libs/core.base.tracing -->
<g id="edge2" class="edge">
<title>packages/libs/core.port.storage&#45;&gt;packages/libs/core.base.tracing</title>
<path fill="none" stroke="#000000" stroke-width="2" stroke-opacity="0.200000" d="M423.06,-58.07C375.47,-53.02 298.71,-44.88 247.56,-39.45"/>
<polygon fill="#000000" fill-opacity="0.200000" stroke="#000000" stroke-width="2" stroke-opacity="0.200000" points="247.84,-37.37 241.65,-38.82 247.39,-41.55 247.84,-37.37"/>
</g>
<!-- packages/libs/core.ui -->
<g id="node7" class="node">
<title>packages/libs/core.ui</title>
<g id="a_node7"><a xlink:href="packages/libs/core.ui" xlink:title="core.ui">
<polygon fill="#f3e5f5" stroke="black" points="823,-134 770.97,-134 769,-132.03 769,-116.25 821.03,-116.25 823,-118.22 823,-134"/>
<polyline fill="none" stroke="black" points="821.03,-132.03 769,-132.03"/>
<polyline fill="none" stroke="black" points="821.03,-132.03 821.03,-116.25"/>
<polyline fill="none" stroke="black" points="821.03,-132.03 823,-134"/>
<text xml:space="preserve" text-anchor="start" x="782.12" y="-122.5" font-family="Helvetica,sans-Serif" font-size="9.00">core.ui</text>
</a>
</g>
</g>
<!-- packages/libs/core.ui&#45;&gt;packages/libs/core.port.event&#45;bus -->
<g id="edge5" class="edge">
<title>packages/libs/core.ui&#45;&gt;packages/libs/core.port.event&#45;bus</title>
<path fill="none" stroke="#000000" stroke-width="2" stroke-opacity="0.200000" d="M794.08,-116C792.59,-107.88 791.45,-95.22 796,-85.5 797.1,-83.15 798.61,-80.97 800.35,-78.97"/>
<polygon fill="#000000" fill-opacity="0.200000" stroke="#000000" stroke-width="2" stroke-opacity="0.200000" points="801.68,-80.61 804.65,-74.99 798.82,-77.53 801.68,-80.61"/>
</g>
<!-- packages/libs/core.ui.api -->
<g id="node8" class="node">
<title>packages/libs/core.ui.api</title>
<g id="a_node8"><a xlink:href="packages/libs/core.ui.api" xlink:title="core.ui.api">
<polygon fill="#f3e5f5" stroke="black" points="860.38,-103.25 803.6,-103.25 801.62,-101.28 801.62,-85.5 858.4,-85.5 860.38,-87.47 860.38,-103.25"/>
<polyline fill="none" stroke="black" points="858.4,-101.28 801.62,-101.28"/>
<polyline fill="none" stroke="black" points="858.4,-101.28 858.4,-85.5"/>
<polyline fill="none" stroke="black" points="858.4,-101.28 860.38,-103.25"/>
<text xml:space="preserve" text-anchor="start" x="809.62" y="-91.75" font-family="Helvetica,sans-Serif" font-size="9.00">core.ui.api</text>
</a>
</g>
</g>
<!-- packages/libs/core.ui&#45;&gt;packages/libs/core.ui.api -->
<g id="edge6" class="edge">
<title>packages/libs/core.ui&#45;&gt;packages/libs/core.ui.api</title>
<path fill="none" stroke="#000000" stroke-width="2" stroke-opacity="0.200000" d="M805.94,-115.96C808.57,-113.8 811.49,-111.4 814.38,-109.02"/>
<polygon fill="#000000" fill-opacity="0.200000" stroke="#000000" stroke-width="2" stroke-opacity="0.200000" points="815.28,-111.01 818.58,-105.58 812.61,-107.76 815.28,-111.01"/>
</g>
<!-- packages/libs/core.ui.api&#45;&gt;packages/libs/core.port.event&#45;bus -->
<g id="edge7" class="edge">
<title>packages/libs/core.ui.api&#45;&gt;packages/libs/core.port.event&#45;bus</title>
<path fill="none" stroke="#000000" stroke-width="2" stroke-opacity="0.200000" d="M828.16,-85.21C827.74,-84.01 827.3,-82.73 826.85,-81.43"/>
<polygon fill="#000000" fill-opacity="0.200000" stroke="#000000" stroke-width="2" stroke-opacity="0.200000" points="828.83,-80.74 824.88,-75.77 824.86,-82.12 828.83,-80.74"/>
</g>
<!-- packages/libs/domain.adapter.db -->
<g id="node9" class="node">
<title>packages/libs/domain.adapter.db</title>
<g id="a_node9"><a xlink:href="packages/libs/domain.adapter.db" xlink:title="domain.adapter.db">
<polygon fill="#fff3e0" stroke="black" points="331.62,-103.25 240.35,-103.25 238.38,-101.28 238.38,-85.5 329.65,-85.5 331.62,-87.47 331.62,-103.25"/>
<polyline fill="none" stroke="black" points="329.65,-101.28 238.38,-101.28"/>
<polyline fill="none" stroke="black" points="329.65,-101.28 329.65,-85.5"/>
<polyline fill="none" stroke="black" points="329.65,-101.28 331.62,-103.25"/>
<text xml:space="preserve" text-anchor="start" x="246.38" y="-91.75" font-family="Helvetica,sans-Serif" font-size="9.00">domain.adapter.db</text>
</a>
</g>
</g>
<!-- packages/libs/domain.adapter.db&#45;&gt;packages/libs/core.base.errors -->
<g id="edge9" class="edge">
<title>packages/libs/domain.adapter.db&#45;&gt;packages/libs/core.base.errors</title>
<path fill="none" stroke="#000000" stroke-width="2" stroke-opacity="0.200000" d="M305.79,-85.03C325.42,-77.16 355.68,-65.08 382,-54.75 389.83,-51.68 398.32,-48.38 406.19,-45.34"/>
<polygon fill="#000000" fill-opacity="0.200000" stroke="#000000" stroke-width="2" stroke-opacity="0.200000" points="406.77,-47.36 411.61,-43.25 405.26,-43.45 406.77,-47.36"/>
</g>
<!-- packages/libs/domain.adapter.db&#45;&gt;packages/libs/core.base.model -->
<g id="edge10" class="edge">
<title>packages/libs/domain.adapter.db&#45;&gt;packages/libs/core.base.model</title>
<path fill="none" stroke="#000000" stroke-opacity="0.200000" d="M319.01,-85.04C333.27,-81.41 350,-76.96 365,-72.5 388.81,-65.42 393.69,-59.87 418,-54.75 477.72,-42.17 547.9,-37.17 594.02,-35.18"/>
<polygon fill="none" stroke="#000000" stroke-opacity="0.200000" points="594.07,-37.28 599.98,-34.94 593.9,-33.09 594.07,-37.28"/>
</g>
<!-- packages/libs/domain.adapter.db&#45;&gt;packages/libs/core.base.tracing -->
<g id="edge11" class="edge">
<title>packages/libs/domain.adapter.db&#45;&gt;packages/libs/core.base.tracing</title>
<path fill="none" stroke="#000000" stroke-width="2" stroke-opacity="0.200000" d="M290.59,-85.08C295.56,-76.58 301.03,-63.41 294,-54.75 287.75,-47.05 267.77,-42.08 247.38,-38.93"/>
<polygon fill="#000000" fill-opacity="0.200000" stroke="#000000" stroke-width="2" stroke-opacity="0.200000" points="247.88,-36.89 241.65,-38.12 247.29,-41.04 247.88,-36.89"/>
</g>
<!-- packages/libs/domain.adapter.db&#45;&gt;packages/libs/core.base.types -->
<g id="edge12" class="edge">
<title>packages/libs/domain.adapter.db&#45;&gt;packages/libs/core.base.types</title>
<path fill="none" stroke="#000000" stroke-width="2" stroke-opacity="0.200000" d="M274.5,-85.21C271.71,-83.05 268.62,-80.65 265.57,-78.27"/>
<polygon fill="#000000" fill-opacity="0.200000" stroke="#000000" stroke-width="2" stroke-opacity="0.200000" points="267.08,-76.79 261.05,-74.76 264.5,-80.1 267.08,-76.79"/>
</g>
<!-- packages/libs/domain.adapter.db&#45;&gt;packages/libs/core.port.storage -->
<g id="edge8" class="edge">
<title>packages/libs/domain.adapter.db&#45;&gt;packages/libs/core.port.storage</title>
<path fill="none" stroke="#000000" stroke-width="2" stroke-opacity="0.200000" d="M332.08,-85.9C357.4,-81.88 388.65,-76.91 414.6,-72.79"/>
<polygon fill="#000000" fill-opacity="0.200000" stroke="#000000" stroke-width="2" stroke-opacity="0.200000" points="414.59,-74.92 420.19,-71.9 413.93,-70.77 414.59,-74.92"/>
</g>
<!-- packages/libs/domain.adapter.electrobun -->
<g id="node10" class="node">
<title>packages/libs/domain.adapter.electrobun</title>
<g id="a_node10"><a xlink:href="packages/libs/domain.adapter.electrobun" xlink:title="domain.adapter.electrobun">
<polygon fill="#fff3e0" stroke="black" points="244.12,-195.5 119.85,-195.5 117.88,-193.53 117.88,-177.75 242.15,-177.75 244.12,-179.72 244.12,-195.5"/>
<polyline fill="none" stroke="black" points="242.15,-193.53 117.88,-193.53"/>
<polyline fill="none" stroke="black" points="242.15,-193.53 242.15,-177.75"/>
<polyline fill="none" stroke="black" points="242.15,-193.53 244.12,-195.5"/>
<text xml:space="preserve" text-anchor="start" x="125.88" y="-184" font-family="Helvetica,sans-Serif" font-size="9.00">domain.adapter.electrobun</text>
</a>
</g>
</g>
<!-- packages/libs/domain.adapter.otel -->
<g id="node11" class="node">
<title>packages/libs/domain.adapter.otel</title>
<g id="a_node11"><a xlink:href="packages/libs/domain.adapter.otel" xlink:title="domain.adapter.otel">
<polygon fill="#fff3e0" stroke="black" points="463.88,-195.5 368.1,-195.5 366.12,-193.53 366.12,-177.75 461.9,-177.75 463.88,-179.72 463.88,-195.5"/>
<polyline fill="none" stroke="black" points="461.9,-193.53 366.12,-193.53"/>
<polyline fill="none" stroke="black" points="461.9,-193.53 461.9,-177.75"/>
<polyline fill="none" stroke="black" points="461.9,-193.53 463.88,-195.5"/>
<text xml:space="preserve" text-anchor="start" x="374.12" y="-184" font-family="Helvetica,sans-Serif" font-size="9.00">domain.adapter.otel</text>
</a>
</g>
</g>
<!-- packages/libs/domain.adapter.rpc -->
<g id="node12" class="node">
<title>packages/libs/domain.adapter.rpc</title>
<g id="a_node12"><a xlink:href="packages/libs/domain.adapter.rpc" xlink:title="domain.adapter.rpc">
<polygon fill="#fff3e0" stroke="black" points="626.75,-195.5 533.22,-195.5 531.25,-193.53 531.25,-177.75 624.78,-177.75 626.75,-179.72 626.75,-195.5"/>
<polyline fill="none" stroke="black" points="624.78,-193.53 531.25,-193.53"/>
<polyline fill="none" stroke="black" points="624.78,-193.53 624.78,-177.75"/>
<polyline fill="none" stroke="black" points="624.78,-193.53 626.75,-195.5"/>
<text xml:space="preserve" text-anchor="start" x="539.25" y="-184" font-family="Helvetica,sans-Serif" font-size="9.00">domain.adapter.rpc</text>
</a>
</g>
</g>
<!-- packages/libs/domain.feature.bookmark -->
<g id="node13" class="node">
<title>packages/libs/domain.feature.bookmark</title>
<g id="a_node13"><a xlink:href="packages/libs/domain.feature.bookmark" xlink:title="domain.feature.bookmark">
<polygon fill="#fce4ec" stroke="black" points="734.12,-103.25 615.85,-103.25 613.88,-101.28 613.88,-85.5 732.15,-85.5 734.12,-87.47 734.12,-103.25"/>
<polyline fill="none" stroke="black" points="732.15,-101.28 613.88,-101.28"/>
<polyline fill="none" stroke="black" points="732.15,-101.28 732.15,-85.5"/>
<polyline fill="none" stroke="black" points="732.15,-101.28 734.12,-103.25"/>
<text xml:space="preserve" text-anchor="start" x="621.88" y="-91.75" font-family="Helvetica,sans-Serif" font-size="9.00">domain.feature.bookmark</text>
</a>
</g>
</g>
<!-- packages/libs/domain.feature.bookmark&#45;&gt;packages/libs/core.base.errors -->
<g id="edge15" class="edge">
<title>packages/libs/domain.feature.bookmark&#45;&gt;packages/libs/core.base.errors</title>
<path fill="none" stroke="#000000" stroke-opacity="0.200000" d="M643.88,-85.07C614.42,-77.03 568.23,-64.63 528,-54.75 512.83,-51.02 496.19,-47.18 481.28,-43.81"/>
<polygon fill="none" stroke="#000000" stroke-opacity="0.200000" points="481.91,-41.8 475.59,-42.54 480.99,-45.9 481.91,-41.8"/>
</g>
<!-- packages/libs/domain.feature.bookmark&#45;&gt;packages/libs/core.base.model -->
<g id="edge13" class="edge">
<title>packages/libs/domain.feature.bookmark&#45;&gt;packages/libs/core.base.model</title>
<path fill="none" stroke="#000000" stroke-opacity="0.200000" d="M669.83,-85.1C665.08,-75.69 657.24,-60.13 651.44,-48.63"/>
<polygon fill="none" stroke="#000000" stroke-opacity="0.200000" points="653.39,-47.84 648.82,-43.43 649.64,-49.73 653.39,-47.84"/>
</g>
<!-- packages/libs/domain.feature.bookmark&#45;&gt;packages/libs/core.port.storage -->
<g id="edge14" class="edge">
<title>packages/libs/domain.feature.bookmark&#45;&gt;packages/libs/core.port.storage</title>
<path fill="none" stroke="#000000" stroke-width="2" stroke-opacity="0.200000" d="M613.56,-85.02C583.12,-80.81 546.61,-75.77 517.52,-71.75"/>
<polygon fill="#000000" fill-opacity="0.200000" stroke="#000000" stroke-width="2" stroke-opacity="0.200000" points="517.98,-69.69 511.75,-70.95 517.4,-73.85 517.98,-69.69"/>
</g>
<!-- packages/libs/domain.feature.history -->
<g id="node14" class="node">
<title>packages/libs/domain.feature.history</title>
<g id="a_node14"><a xlink:href="packages/libs/domain.feature.history" xlink:title="domain.feature.history">
<polygon fill="#fce4ec" stroke="black" points="601.38,-103.25 496.6,-103.25 494.62,-101.28 494.62,-85.5 599.4,-85.5 601.38,-87.47 601.38,-103.25"/>
<polyline fill="none" stroke="black" points="599.4,-101.28 494.62,-101.28"/>
<polyline fill="none" stroke="black" points="599.4,-101.28 599.4,-85.5"/>
<polyline fill="none" stroke="black" points="599.4,-101.28 601.38,-103.25"/>
<text xml:space="preserve" text-anchor="start" x="502.62" y="-91.75" font-family="Helvetica,sans-Serif" font-size="9.00">domain.feature.history</text>
</a>
</g>
</g>
<!-- packages/libs/domain.feature.history&#45;&gt;packages/libs/core.base.errors -->
<g id="edge18" class="edge">
<title>packages/libs/domain.feature.history&#45;&gt;packages/libs/core.base.errors</title>
<path fill="none" stroke="#000000" stroke-opacity="0.200000" d="M543.23,-85.3C537.59,-76.47 527.4,-62.54 515,-54.75 505.92,-49.05 495.32,-44.89 484.89,-41.87"/>
<polygon fill="none" stroke="#000000" stroke-opacity="0.200000" points="485.51,-39.86 479.17,-40.34 484.43,-43.92 485.51,-39.86"/>
</g>
<!-- packages/libs/domain.feature.history&#45;&gt;packages/libs/core.base.model -->
<g id="edge16" class="edge">
<title>packages/libs/domain.feature.history&#45;&gt;packages/libs/core.base.model</title>
<path fill="none" stroke="#000000" stroke-opacity="0.200000" d="M568.19,-85.12C576.12,-81.59 585.18,-77.2 593,-72.5 605.61,-64.92 618.83,-54.84 628.65,-46.88"/>
<polygon fill="none" stroke="#000000" stroke-opacity="0.200000" points="629.82,-48.63 633.12,-43.2 627.15,-45.39 629.82,-48.63"/>
</g>
<!-- packages/libs/domain.feature.history&#45;&gt;packages/libs/core.port.storage -->
<g id="edge17" class="edge">
<title>packages/libs/domain.feature.history&#45;&gt;packages/libs/core.port.storage</title>
<path fill="none" stroke="#000000" stroke-width="2" stroke-opacity="0.200000" d="M524.28,-85.06C516.12,-82.2 506.85,-78.95 498.13,-75.89"/>
<polygon fill="#000000" fill-opacity="0.200000" stroke="#000000" stroke-width="2" stroke-opacity="0.200000" points="498.88,-73.93 492.52,-73.92 497.49,-77.89 498.88,-73.93"/>
</g>
<!-- packages/libs/domain.feature.layout -->
<g id="node15" class="node">
<title>packages/libs/domain.feature.layout</title>
<g id="a_node15"><a xlink:href="packages/libs/domain.feature.layout" xlink:title="domain.feature.layout">
<polygon fill="#fce4ec" stroke="black" points="198.25,-103.25 95.72,-103.25 93.75,-101.28 93.75,-85.5 196.28,-85.5 198.25,-87.47 198.25,-103.25"/>
<polyline fill="none" stroke="black" points="196.28,-101.28 93.75,-101.28"/>
<polyline fill="none" stroke="black" points="196.28,-101.28 196.28,-85.5"/>
<polyline fill="none" stroke="black" points="196.28,-101.28 198.25,-103.25"/>
<text xml:space="preserve" text-anchor="start" x="101.75" y="-91.75" font-family="Helvetica,sans-Serif" font-size="9.00">domain.feature.layout</text>
</a>
</g>
</g>
<!-- packages/libs/domain.feature.layout&#45;&gt;packages/libs/core.base.tracing -->
<g id="edge20" class="edge">
<title>packages/libs/domain.feature.layout&#45;&gt;packages/libs/core.base.tracing</title>
<path fill="none" stroke="#000000" stroke-width="2" stroke-opacity="0.200000" d="M159.52,-85.08C164.47,-81.6 169.87,-77.27 174,-72.5 179.75,-65.87 184.57,-57.4 188.14,-50.08"/>
<polygon fill="#000000" fill-opacity="0.200000" stroke="#000000" stroke-width="2" stroke-opacity="0.200000" points="189.9,-51.29 190.47,-44.96 186.07,-49.55 189.9,-51.29"/>
</g>
<!-- packages/libs/domain.feature.layout&#45;&gt;packages/libs/core.port.storage -->
<g id="edge19" class="edge">
<title>packages/libs/domain.feature.layout&#45;&gt;packages/libs/core.port.storage</title>
<path fill="none" stroke="#000000" stroke-width="2" stroke-opacity="0.200000" d="M198.3,-88.57C209.42,-87.55 221.1,-86.49 232,-85.5 294.78,-79.83 367.03,-73.4 414.45,-69.19"/>
<polygon fill="#000000" fill-opacity="0.200000" stroke="#000000" stroke-width="2" stroke-opacity="0.200000" points="414.49,-71.29 420.28,-68.67 414.12,-67.11 414.49,-71.29"/>
</g>
<!-- packages/libs/domain.feature.omnibox -->
<g id="node16" class="node">
<title>packages/libs/domain.feature.omnibox</title>
<g id="a_node16"><a xlink:href="packages/libs/domain.feature.omnibox" xlink:title="domain.feature.omnibox">
<polygon fill="#fce4ec" stroke="black" points="167.5,-72.5 54.47,-72.5 52.5,-70.53 52.5,-54.75 165.53,-54.75 167.5,-56.72 167.5,-72.5"/>
<polyline fill="none" stroke="black" points="165.53,-70.53 52.5,-70.53"/>
<polyline fill="none" stroke="black" points="165.53,-70.53 165.53,-54.75"/>
<polyline fill="none" stroke="black" points="165.53,-70.53 167.5,-72.5"/>
<text xml:space="preserve" text-anchor="start" x="60.5" y="-61" font-family="Helvetica,sans-Serif" font-size="9.00">domain.feature.omnibox</text>
</a>
</g>
</g>
<!-- packages/libs/domain.feature.omnibox&#45;&gt;packages/libs/core.base.tracing -->
<g id="edge21" class="edge">
<title>packages/libs/domain.feature.omnibox&#45;&gt;packages/libs/core.base.tracing</title>
<path fill="none" stroke="#000000" stroke-width="2" stroke-opacity="0.200000" d="M134.59,-54.31C143.13,-51.42 152.86,-48.13 161.98,-45.04"/>
<polygon fill="#000000" fill-opacity="0.200000" stroke="#000000" stroke-width="2" stroke-opacity="0.200000" points="162.59,-47.05 167.6,-43.14 161.25,-43.08 162.59,-47.05"/>
</g>
<!-- packages/libs/domain.feature.session -->
<g id="node17" class="node">
<title>packages/libs/domain.feature.session</title>
<g id="a_node17"><a xlink:href="packages/libs/domain.feature.session" xlink:title="domain.feature.session">
<polygon fill="#fce4ec" stroke="black" points="454.62,-103.25 345.35,-103.25 343.38,-101.28 343.38,-85.5 452.65,-85.5 454.62,-87.47 454.62,-103.25"/>
<polyline fill="none" stroke="black" points="452.65,-101.28 343.38,-101.28"/>
<polyline fill="none" stroke="black" points="452.65,-101.28 452.65,-85.5"/>
<polyline fill="none" stroke="black" points="452.65,-101.28 454.62,-103.25"/>
<text xml:space="preserve" text-anchor="start" x="351.38" y="-91.75" font-family="Helvetica,sans-Serif" font-size="9.00">domain.feature.session</text>
</a>
</g>
</g>
<!-- packages/libs/domain.feature.session&#45;&gt;packages/libs/core.base.errors -->
<g id="edge25" class="edge">
<title>packages/libs/domain.feature.session&#45;&gt;packages/libs/core.base.errors</title>
<path fill="none" stroke="#000000" stroke-width="2" stroke-opacity="0.200000" d="M402.36,-85.06C405.78,-77 411.49,-64.6 418,-54.75 419.39,-52.65 420.96,-50.54 422.59,-48.5"/>
<polygon fill="#000000" fill-opacity="0.200000" stroke="#000000" stroke-width="2" stroke-opacity="0.200000" points="423.86,-50.24 426.16,-44.32 420.67,-47.52 423.86,-50.24"/>
</g>
<!-- packages/libs/domain.feature.session&#45;&gt;packages/libs/core.base.model -->
<g id="edge22" class="edge">
<title>packages/libs/domain.feature.session&#45;&gt;packages/libs/core.base.model</title>
<path fill="none" stroke="#000000" stroke-opacity="0.200000" d="M452.68,-85.02C472.38,-81.61 494.8,-77.33 515,-72.5 548.67,-64.46 586.55,-52.8 612.5,-44.39"/>
<polygon fill="none" stroke="#000000" stroke-opacity="0.200000" points="613,-46.44 618.06,-42.58 611.7,-42.45 613,-46.44"/>
</g>
<!-- packages/libs/domain.feature.session&#45;&gt;packages/libs/core.base.tracing -->
<g id="edge26" class="edge">
<title>packages/libs/domain.feature.session&#45;&gt;packages/libs/core.base.tracing</title>
<path fill="none" stroke="#000000" stroke-width="2" stroke-opacity="0.200000" d="M380.73,-85.12C361.11,-76.53 328.87,-63.18 300,-54.75 283.06,-49.8 264.24,-45.65 247.27,-42.39"/>
<polygon fill="#000000" fill-opacity="0.200000" stroke="#000000" stroke-width="2" stroke-opacity="0.200000" points="247.84,-40.36 241.56,-41.32 247.07,-44.49 247.84,-40.36"/>
</g>
<!-- packages/libs/domain.feature.session&#45;&gt;packages/libs/core.base.types -->
<g id="edge23" class="edge">
<title>packages/libs/domain.feature.session&#45;&gt;packages/libs/core.base.types</title>
<path fill="none" stroke="#000000" stroke-width="2" stroke-opacity="0.200000" d="M355.32,-85.06C337.2,-81.61 316.09,-77.59 297.4,-74.03"/>
<polygon fill="#000000" fill-opacity="0.200000" stroke="#000000" stroke-width="2" stroke-opacity="0.200000" points="297.99,-72.01 291.7,-72.95 297.21,-76.13 297.99,-72.01"/>
</g>
<!-- packages/libs/domain.feature.session&#45;&gt;packages/libs/core.port.storage -->
<g id="edge24" class="edge">
<title>packages/libs/domain.feature.session&#45;&gt;packages/libs/core.port.storage</title>
<path fill="none" stroke="#000000" stroke-width="2" stroke-opacity="0.200000" d="M418.38,-85.06C424.82,-82.29 432.12,-79.16 439.03,-76.2"/>
<polygon fill="#000000" fill-opacity="0.200000" stroke="#000000" stroke-width="2" stroke-opacity="0.200000" points="439.43,-78.31 444.11,-74.02 437.77,-74.45 439.43,-78.31"/>
</g>
<!-- packages/libs/domain.service.browsing -->
<g id="node18" class="node">
<title>packages/libs/domain.service.browsing</title>
<g id="a_node18"><a xlink:href="packages/libs/domain.service.browsing" xlink:title="domain.service.browsing">
<polygon fill="#fff9c4" stroke="black" points="574,-134 457.97,-134 456,-132.03 456,-116.25 572.03,-116.25 574,-118.22 574,-134"/>
<polyline fill="none" stroke="black" points="572.03,-132.03 456,-132.03"/>
<polyline fill="none" stroke="black" points="572.03,-132.03 572.03,-116.25"/>
<polyline fill="none" stroke="black" points="572.03,-132.03 574,-134"/>
<text xml:space="preserve" text-anchor="start" x="464" y="-122.5" font-family="Helvetica,sans-Serif" font-size="9.00">domain.service.browsing</text>
</a>
</g>
</g>
<!-- packages/libs/domain.service.browsing&#45;&gt;packages/libs/core.base.model -->
<g id="edge27" class="edge">
<title>packages/libs/domain.service.browsing&#45;&gt;packages/libs/core.base.model</title>
<path fill="none" stroke="#000000" stroke-opacity="0.200000" d="M574.24,-122.68C637.13,-120.52 729,-115.32 740,-103.25 762.79,-78.25 716.63,-56.73 680.74,-44.54"/>
<polygon fill="none" stroke="#000000" stroke-opacity="0.200000" points="681.51,-42.58 675.16,-42.7 680.2,-46.57 681.51,-42.58"/>
</g>
<!-- packages/libs/domain.service.browsing&#45;&gt;packages/libs/core.base.types -->
<g id="edge28" class="edge">
<title>packages/libs/domain.service.browsing&#45;&gt;packages/libs/core.base.types</title>
<path fill="none" stroke="#000000" stroke-width="2" stroke-opacity="0.200000" d="M455.69,-123.96C377.18,-123.11 246.88,-119.27 232,-103.25 226,-96.79 229.3,-87.76 234.42,-80.06"/>
<polygon fill="#000000" fill-opacity="0.200000" stroke="#000000" stroke-width="2" stroke-opacity="0.200000" points="236.05,-81.38 238.03,-75.34 232.72,-78.83 236.05,-81.38"/>
</g>
<!-- packages/libs/domain.service.browsing&#45;&gt;packages/libs/core.port.event&#45;bus -->
<g id="edge29" class="edge">
<title>packages/libs/domain.service.browsing&#45;&gt;packages/libs/core.port.event&#45;bus</title>
<path fill="none" stroke="#000000" stroke-width="2" stroke-opacity="0.200000" d="M574.47,-121.67C633.36,-118.73 719.18,-112.96 751,-103.25 769.64,-97.56 788.9,-86.49 802.48,-77.65"/>
<polygon fill="#000000" fill-opacity="0.200000" stroke="#000000" stroke-width="2" stroke-opacity="0.200000" points="803.45,-79.53 807.26,-74.45 801.11,-76.05 803.45,-79.53"/>
</g>
<!-- packages/libs/domain.service.browsing&#45;&gt;packages/libs/core.port.storage -->
<g id="edge30" class="edge">
<title>packages/libs/domain.service.browsing&#45;&gt;packages/libs/core.port.storage</title>
<path fill="none" stroke="#000000" stroke-width="2" stroke-opacity="0.200000" d="M502.83,-115.79C498.18,-112.26 493.03,-107.88 489,-103.25 483.11,-96.48 477.87,-87.99 473.89,-80.71"/>
<polygon fill="#000000" fill-opacity="0.200000" stroke="#000000" stroke-width="2" stroke-opacity="0.200000" points="475.84,-79.92 471.22,-75.56 472.11,-81.85 475.84,-79.92"/>
</g>
<!-- packages/libs/domain.service.browsing&#45;&gt;packages/libs/domain.feature.bookmark -->
<g id="edge31" class="edge">
<title>packages/libs/domain.service.browsing&#45;&gt;packages/libs/domain.feature.bookmark</title>
<path fill="none" stroke="#000000" stroke-width="2" stroke-opacity="0.200000" d="M560.99,-115.81C579.12,-112.53 600.1,-108.74 619.02,-105.32"/>
<polygon fill="#000000" fill-opacity="0.200000" stroke="#000000" stroke-width="2" stroke-opacity="0.200000" points="619.33,-107.39 624.86,-104.26 618.58,-103.26 619.33,-107.39"/>
</g>
<!-- packages/libs/domain.service.browsing&#45;&gt;packages/libs/domain.feature.history -->
<g id="edge32" class="edge">
<title>packages/libs/domain.service.browsing&#45;&gt;packages/libs/domain.feature.history</title>
<path fill="none" stroke="#000000" stroke-width="2" stroke-opacity="0.200000" d="M524.37,-115.96C526.72,-113.92 529.3,-111.66 531.88,-109.42"/>
<polygon fill="#000000" fill-opacity="0.200000" stroke="#000000" stroke-width="2" stroke-opacity="0.200000" points="533.07,-111.17 536.21,-105.65 530.31,-108 533.07,-111.17"/>
</g>
<!-- packages/libs/domain.service.browsing&#45;&gt;packages/libs/domain.feature.omnibox -->
<g id="edge33" class="edge">
<title>packages/libs/domain.service.browsing&#45;&gt;packages/libs/domain.feature.omnibox</title>
<path fill="none" stroke="#000000" stroke-width="2" stroke-opacity="0.200000" d="M455.77,-122.28C339.98,-118.53 94.25,-109.82 88,-103.25 82.56,-97.54 84.89,-92.75 88,-85.5 89.01,-83.14 90.44,-80.92 92.08,-78.88"/>
<polygon fill="#000000" fill-opacity="0.200000" stroke="#000000" stroke-width="2" stroke-opacity="0.200000" points="93.39,-80.55 96.1,-74.8 90.4,-77.6 93.39,-80.55"/>
</g>
<!-- packages/libs/domain.service.browsing&#45;&gt;packages/libs/domain.feature.session -->
<g id="edge34" class="edge">
<title>packages/libs/domain.service.browsing&#45;&gt;packages/libs/domain.feature.session</title>
<path fill="none" stroke="#000000" stroke-width="2" stroke-opacity="0.200000" d="M481.45,-115.81C468.82,-112.68 454.31,-109.08 441.01,-105.79"/>
<polygon fill="#000000" fill-opacity="0.200000" stroke="#000000" stroke-width="2" stroke-opacity="0.200000" points="441.74,-103.81 435.41,-104.4 440.73,-107.88 441.74,-103.81"/>
</g>
<!-- packages/libs/domain.service.workspace -->
<g id="node19" class="node">
<title>packages/libs/domain.service.workspace</title>
<g id="a_node19"><a xlink:href="packages/libs/domain.service.workspace" xlink:title="domain.service.workspace">
<polygon fill="#fff9c4" stroke="black" points="218.38,-134 95.6,-134 93.62,-132.03 93.62,-116.25 216.4,-116.25 218.38,-118.22 218.38,-134"/>
<polyline fill="none" stroke="black" points="216.4,-132.03 93.62,-132.03"/>
<polyline fill="none" stroke="black" points="216.4,-132.03 216.4,-116.25"/>
<polyline fill="none" stroke="black" points="216.4,-132.03 218.38,-134"/>
<text xml:space="preserve" text-anchor="start" x="101.62" y="-122.5" font-family="Helvetica,sans-Serif" font-size="9.00">domain.service.workspace</text>
</a>
</g>
</g>
<!-- packages/libs/domain.service.workspace&#45;&gt;packages/libs/core.base.errors -->
<g id="edge35" class="edge">
<title>packages/libs/domain.service.workspace&#45;&gt;packages/libs/core.base.errors</title>
<path fill="none" stroke="#000000" stroke-width="2" stroke-opacity="0.200000" d="M103.53,-115.83C97.48,-112.79 92.04,-108.71 88,-103.25 83.31,-96.91 82.86,-91.48 88,-85.5 100.6,-70.85 155.89,-79.26 174,-72.5 187.8,-67.34 188.05,-59.48 202,-54.75 234.79,-43.63 327.01,-38.08 385.41,-35.6"/>
<polygon fill="#000000" fill-opacity="0.200000" stroke="#000000" stroke-width="2" stroke-opacity="0.200000" points="385.19,-37.71 391.1,-35.37 385.02,-33.51 385.19,-37.71"/>
</g>
<!-- packages/libs/domain.service.workspace&#45;&gt;packages/libs/core.base.tracing -->
<g id="edge36" class="edge">
<title>packages/libs/domain.service.workspace&#45;&gt;packages/libs/core.base.tracing</title>
<path fill="none" stroke="#000000" stroke-width="2" stroke-opacity="0.200000" d="M93.35,-118.42C73.66,-115.28 55.38,-110.5 49,-103.25 34.75,-87.05 32.85,-71.04 47,-54.75 59.33,-40.56 105.11,-35.75 142.53,-34.24"/>
<polygon fill="#000000" fill-opacity="0.200000" stroke="#000000" stroke-width="2" stroke-opacity="0.200000" points="142.39,-36.35 148.32,-34.04 142.25,-32.15 142.39,-36.35"/>
</g>
<!-- packages/libs/domain.service.workspace&#45;&gt;packages/libs/core.port.storage -->
<g id="edge38" class="edge">
<title>packages/libs/domain.service.workspace&#45;&gt;packages/libs/core.port.storage</title>
<path fill="none" stroke="#000000" stroke-width="2" stroke-opacity="0.200000" d="M218.55,-124C302.67,-123.22 443.78,-119.46 461,-103.25 466.75,-97.84 468.29,-89.33 468.27,-81.68"/>
<polygon fill="#000000" fill-opacity="0.200000" stroke="#000000" stroke-width="2" stroke-opacity="0.200000" points="470.37,-81.58 467.83,-75.76 466.18,-81.89 470.37,-81.58"/>
</g>
<!-- packages/libs/domain.service.workspace&#45;&gt;packages/libs/domain.feature.layout -->
<g id="edge37" class="edge">
<title>packages/libs/domain.service.workspace&#45;&gt;packages/libs/domain.feature.layout</title>
<path fill="none" stroke="#000000" stroke-width="2" stroke-opacity="0.200000" d="M153.16,-115.96C152.74,-114.76 152.3,-113.48 151.85,-112.18"/>
<polygon fill="#000000" fill-opacity="0.200000" stroke="#000000" stroke-width="2" stroke-opacity="0.200000" points="153.83,-111.49 149.88,-106.52 149.86,-112.87 153.83,-111.49"/>
</g>
<!-- packages/libs/ui.feature.sidebar -->
<g id="node20" class="node">
<title>packages/libs/ui.feature.sidebar</title>
<g id="a_node20"><a xlink:href="packages/libs/ui.feature.sidebar" xlink:title="ui.feature.sidebar">
<polygon fill="#e0f7fa" stroke="black" points="790.62,-164.75 705.35,-164.75 703.38,-162.78 703.38,-147 788.65,-147 790.62,-148.97 790.62,-164.75"/>
<polyline fill="none" stroke="black" points="788.65,-162.78 703.38,-162.78"/>
<polyline fill="none" stroke="black" points="788.65,-162.78 788.65,-147"/>
<polyline fill="none" stroke="black" points="788.65,-162.78 790.62,-164.75"/>
<text xml:space="preserve" text-anchor="start" x="711.38" y="-153.25" font-family="Helvetica,sans-Serif" font-size="9.00">ui.feature.sidebar</text>
</a>
</g>
</g>
<!-- packages/libs/ui.feature.sidebar&#45;&gt;packages/libs/core.base.model -->
<g id="edge39" class="edge">
<title>packages/libs/ui.feature.sidebar&#45;&gt;packages/libs/core.base.model</title>
<path fill="none" stroke="#000000" stroke-opacity="0.200000" d="M748.55,-146.52C750.68,-133.25 753.54,-106.67 747,-85.5 742.12,-69.69 739.56,-64.24 726,-54.75 716.43,-48.06 704.9,-43.51 693.54,-40.41"/>
<polygon fill="none" stroke="#000000" stroke-opacity="0.200000" points="694.31,-38.44 687.98,-39.04 693.3,-42.52 694.31,-38.44"/>
</g>
<!-- packages/libs/ui.feature.sidebar&#45;&gt;packages/libs/core.base.tracing -->
<g id="edge40" class="edge">
<title>packages/libs/ui.feature.sidebar&#45;&gt;packages/libs/core.base.tracing</title>
<path fill="none" stroke="#000000" stroke-width="2" stroke-opacity="0.200000" d="M703.14,-147.62C701.07,-147.39 699.01,-147.18 697,-147 629.58,-141 153.09,-152.55 88,-134 62.18,-126.64 49.68,-126.35 36,-103.25 25.01,-84.7 20.77,-70.95 35,-54.75 48.86,-38.96 101.41,-34.51 142.55,-33.53"/>
<polygon fill="#000000" fill-opacity="0.200000" stroke="#000000" stroke-width="2" stroke-opacity="0.200000" points="142.41,-35.63 148.37,-33.42 142.33,-31.43 142.41,-35.63"/>
</g>
<!-- packages/libs/ui.feature.sidebar&#45;&gt;packages/libs/core.base.types -->
<g id="edge41" class="edge">
<title>packages/libs/ui.feature.sidebar&#45;&gt;packages/libs/core.base.types</title>
<path fill="none" stroke="#000000" stroke-width="2" stroke-opacity="0.200000" d="M703.13,-147.7C701.06,-147.45 699.01,-147.21 697,-147 644.73,-141.52 260.55,-142.86 226,-103.25 220.81,-97.3 222.89,-92.75 226,-85.5 227.01,-83.14 228.44,-80.92 230.08,-78.88"/>
<polygon fill="#000000" fill-opacity="0.200000" stroke="#000000" stroke-width="2" stroke-opacity="0.200000" points="231.39,-80.55 234.1,-74.8 228.4,-77.6 231.39,-80.55"/>
</g>
<!-- packages/libs/ui.feature.sidebar&#45;&gt;packages/libs/core.port.event&#45;bus -->
<g id="edge42" class="edge">
<title>packages/libs/ui.feature.sidebar&#45;&gt;packages/libs/core.port.event&#45;bus</title>
<path fill="none" stroke="#000000" stroke-opacity="0.200000" d="M790.84,-150.67C819.64,-145.15 854.11,-132.45 866,-103.25 868.97,-95.94 870.25,-92.15 866,-85.5 863.8,-82.05 860.86,-79.16 857.55,-76.75"/>
<polygon fill="none" stroke="#000000" stroke-opacity="0.200000" points="858.74,-75.02 852.52,-73.68 856.55,-78.6 858.74,-75.02"/>
</g>
<!-- packages/libs/ui.feature.sidebar&#45;&gt;packages/libs/core.ui -->
<g id="edge43" class="edge">
<title>packages/libs/ui.feature.sidebar&#45;&gt;packages/libs/core.ui</title>
<path fill="none" stroke="#000000" stroke-width="2" stroke-opacity="0.200000" d="M761.17,-146.56C765.27,-144.15 769.84,-141.47 774.29,-138.86"/>
<polygon fill="#000000" fill-opacity="0.200000" stroke="#000000" stroke-width="2" stroke-opacity="0.200000" points="775.31,-140.7 779.42,-135.85 773.18,-137.08 775.31,-140.7"/>
</g>
<!-- packages/libs/ui.feature.sidebar&#45;&gt;packages/libs/core.ui.api -->
<g id="edge44" class="edge">
<title>packages/libs/ui.feature.sidebar&#45;&gt;packages/libs/core.ui.api</title>
<path fill="none" stroke="#000000" stroke-width="2" stroke-opacity="0.200000" d="M790.7,-148.53C807.44,-145.15 823.78,-140.36 829,-134 833.91,-128.01 834.8,-119.58 834.3,-112.12"/>
<polygon fill="#000000" fill-opacity="0.200000" stroke="#000000" stroke-width="2" stroke-opacity="0.200000" points="836.42,-112.12 833.53,-106.45 832.26,-112.68 836.42,-112.12"/>
</g>
<!-- packages/libs/ui.feature.workspace -->
<g id="node21" class="node">
<title>packages/libs/ui.feature.workspace</title>
<g id="a_node21"><a xlink:href="packages/libs/ui.feature.workspace" xlink:title="ui.feature.workspace">
<polygon fill="#e0f7fa" stroke="black" points="691.38,-164.75 592.6,-164.75 590.62,-162.78 590.62,-147 689.4,-147 691.38,-148.97 691.38,-164.75"/>
<polyline fill="none" stroke="black" points="689.4,-162.78 590.62,-162.78"/>
<polyline fill="none" stroke="black" points="689.4,-162.78 689.4,-147"/>
<polyline fill="none" stroke="black" points="689.4,-162.78 691.38,-164.75"/>
<text xml:space="preserve" text-anchor="start" x="598.62" y="-153.25" font-family="Helvetica,sans-Serif" font-size="9.00">ui.feature.workspace</text>
</a>
</g>
</g>
<!-- packages/libs/ui.feature.workspace&#45;&gt;packages/libs/core.ui -->
<g id="edge45" class="edge">
<title>packages/libs/ui.feature.workspace&#45;&gt;packages/libs/core.ui</title>
<path fill="none" stroke="#000000" stroke-width="2" stroke-opacity="0.200000" d="M685.83,-146.56C709.41,-142.19 737.92,-136.9 760.03,-132.8"/>
<polygon fill="#000000" fill-opacity="0.200000" stroke="#000000" stroke-width="2" stroke-opacity="0.200000" points="760.28,-134.89 765.8,-131.73 759.52,-130.76 760.28,-134.89"/>
</g>
<!-- packages/libs/ui.feature.workspace&#45;&gt;packages/libs/domain.service.workspace -->
<g id="edge46" class="edge">
<title>packages/libs/ui.feature.workspace&#45;&gt;packages/libs/domain.service.workspace</title>
<path fill="none" stroke="#000000" stroke-width="2" stroke-opacity="0.200000" d="M590.27,-153.3C513.83,-150.71 364.33,-144.8 227.68,-134"/>
<polygon fill="#000000" fill-opacity="0.200000" stroke="#000000" stroke-width="2" stroke-opacity="0.200000" points="227.87,-131.91 221.72,-133.53 227.53,-136.1 227.87,-131.91"/>
</g>
<!-- packages/libs/ui.scenes -->
<g id="node22" class="node">
<title>packages/libs/ui.scenes</title>
<g id="a_node22"><a xlink:href="packages/libs/ui.scenes" xlink:title="ui.scenes">
<polygon fill="#e0f7fa" stroke="black" points="721.5,-195.5 668.47,-195.5 666.5,-193.53 666.5,-177.75 719.53,-177.75 721.5,-179.72 721.5,-195.5"/>
<polyline fill="none" stroke="black" points="719.53,-193.53 666.5,-193.53"/>
<polyline fill="none" stroke="black" points="719.53,-193.53 719.53,-177.75"/>
<polyline fill="none" stroke="black" points="719.53,-193.53 721.5,-195.5"/>
<text xml:space="preserve" text-anchor="start" x="674.5" y="-184" font-family="Helvetica,sans-Serif" font-size="9.00">ui.scenes</text>
</a>
</g>
</g>
<!-- packages/libs/ui.scenes&#45;&gt;packages/libs/core.base.types -->
<g id="edge47" class="edge">
<title>packages/libs/ui.scenes&#45;&gt;packages/libs/core.base.types</title>
<path fill="none" stroke="#000000" stroke-width="2" stroke-opacity="0.200000" d="M666.1,-181.73C655.72,-180.36 643.83,-178.88 633,-177.75 572.58,-171.43 129.2,-178.64 88,-134 73.38,-118.16 73.78,-101.7 88,-85.5 89.86,-83.39 152.39,-75.71 198.71,-70.28"/>
<polygon fill="#000000" fill-opacity="0.200000" stroke="#000000" stroke-width="2" stroke-opacity="0.200000" points="198.73,-72.39 204.44,-69.61 198.24,-68.22 198.73,-72.39"/>
</g>
<!-- packages/libs/ui.scenes&#45;&gt;packages/libs/core.ui -->
<g id="edge48" class="edge">
<title>packages/libs/ui.scenes&#45;&gt;packages/libs/core.ui</title>
<path fill="none" stroke="#000000" stroke-width="2" stroke-opacity="0.200000" d="M721.93,-183.85C749.12,-181.48 787.67,-176.16 797,-164.75 801.9,-158.76 802.18,-150.33 801.01,-142.87"/>
<polygon fill="#000000" fill-opacity="0.200000" stroke="#000000" stroke-width="2" stroke-opacity="0.200000" points="803.08,-142.52 799.68,-137.15 798.99,-143.47 803.08,-142.52"/>
</g>
<!-- packages/libs/ui.scenes&#45;&gt;packages/libs/ui.feature.sidebar -->
<g id="edge49" class="edge">
<title>packages/libs/ui.scenes&#45;&gt;packages/libs/ui.feature.sidebar</title>
<path fill="none" stroke="#000000" stroke-width="2" stroke-opacity="0.200000" d="M709.33,-177.31C713.98,-174.78 719.2,-171.95 724.24,-169.22"/>
<polygon fill="#000000" fill-opacity="0.200000" stroke="#000000" stroke-width="2" stroke-opacity="0.200000" points="724.95,-171.22 729.23,-166.52 722.95,-167.53 724.95,-171.22"/>
</g>
<!-- packages/libs/ui.scenes&#45;&gt;packages/libs/ui.feature.workspace -->
<g id="edge50" class="edge">
<title>packages/libs/ui.scenes&#45;&gt;packages/libs/ui.feature.workspace</title>
<path fill="none" stroke="#000000" stroke-width="2" stroke-opacity="0.200000" d="M678.67,-177.31C674.02,-174.78 668.8,-171.95 663.76,-169.22"/>
<polygon fill="#000000" fill-opacity="0.200000" stroke="#000000" stroke-width="2" stroke-opacity="0.200000" points="665.05,-167.53 658.77,-166.52 663.05,-171.22 665.05,-167.53"/>
</g>
</g>
</svg>
